<svg xmlns="http://www.w3.org/2000/svg" viewBox="0 0 900 1200" width="900" height="1200" role="img" aria-label="轻记账：手机竖屏界面中的月度收支柱状图、预算进度与语音记账按钮">
  <defs>
    <pattern id="qj-dots" width="34" height="34" patternUnits="userSpaceOnUse">
      <circle cx="2" cy="2" r="1.3" fill="#1a1917" opacity="0.07"/>
    </pattern>
  </defs>

  <rect width="900" height="1200" fill="#f2f0ea"/>
  <rect width="900" height="1200" fill="url(#qj-dots)"/>

  <rect x="170" y="110" width="560" height="980" rx="52" fill="#e6e1d6"/>
  <rect x="190" y="130" width="520" height="940" rx="40" fill="#faf9f6"/>
  <rect x="398" y="146" width="104" height="12" rx="6" fill="#d5d0c4"/>

  <rect x="230" y="200" width="150" height="15" rx="7" fill="#1a1917" opacity="0.55"/>
  <rect x="230" y="228" width="96" height="10" rx="5" fill="#1a1917" opacity="0.18"/>
  <rect x="230" y="270" width="196" height="36" rx="6" fill="#1a1917" opacity="0.78"/>

  <rect x="230" y="336" width="88" height="34" rx="17" fill="#c2452d"/>
  <rect x="330" y="336" width="88" height="34" rx="17" fill="#f2f0ea" stroke="#1a1917" stroke-opacity="0.12" stroke-width="1.4"/>
  <rect x="430" y="336" width="88" height="34" rx="17" fill="#f2f0ea" stroke="#1a1917" stroke-opacity="0.12" stroke-width="1.4"/>

  <path d="M230 620 H670" stroke="#1a1917" stroke-opacity="0.14" stroke-width="1.4" fill="none"/>

  <g fill="#e2ddd2">
    <rect x="246" y="524" width="36" height="96" rx="6"/>
    <rect x="308" y="482" width="36" height="138" rx="6"/>
    <rect x="370" y="546" width="36" height="74" rx="6"/>
    <rect x="494" y="504" width="36" height="116" rx="6"/>
    <rect x="556" y="558" width="36" height="62" rx="6"/>
    <rect x="618" y="472" width="36" height="148" rx="6"/>
  </g>
  <rect x="432" y="448" width="36" height="172" rx="6" fill="#c2452d"/>

  <g fill="#1a1917" opacity="0.12">
    <rect x="253" y="636" width="22" height="7" rx="3.5"/>
    <rect x="315" y="636" width="22" height="7" rx="3.5"/>
    <rect x="377" y="636" width="22" height="7" rx="3.5"/>
    <rect x="439" y="636" width="22" height="7" rx="3.5"/>
    <rect x="501" y="636" width="22" height="7" rx="3.5"/>
    <rect x="563" y="636" width="22" height="7" rx="3.5"/>
    <rect x="625" y="636" width="22" height="7" rx="3.5"/>
  </g>

  <rect x="230" y="690" width="110" height="10" rx="5" fill="#1a1917" opacity="0.16"/>
  <rect x="230" y="712" width="440" height="18" rx="9" fill="#eeeae1"/>
  <rect x="230" y="712" width="268" height="18" rx="9" fill="#c2452d" opacity="0.9"/>

  <g>
    <rect x="230" y="772" width="440" height="64" rx="12" fill="#f2f0ea"/>
    <circle cx="268" cy="804" r="16" fill="#e0dbd0"/>
    <rect x="300" y="799" width="140" height="10" rx="5" fill="#1a1917" opacity="0.14"/>
    <rect x="580" y="799" width="70" height="10" rx="5" fill="#1a1917" opacity="0.2"/>

    <rect x="230" y="852" width="440" height="64" rx="12" fill="#f2f0ea"/>
    <circle cx="268" cy="884" r="16" fill="#e0dbd0"/>
    <rect x="300" y="879" width="112" height="10" rx="5" fill="#1a1917" opacity="0.14"/>
    <rect x="580" y="879" width="70" height="10" rx="5" fill="#1a1917" opacity="0.2"/>
  </g>

  <circle cx="450" cy="996" r="50" fill="#c2452d"/>
  <rect x="441" y="972" width="18" height="30" rx="9" fill="#faf9f6"/>
  <path d="M433 990 v4 a17 17 0 0 0 34 0 v-4" fill="none" stroke="#faf9f6" stroke-width="3" stroke-linecap="round"/>
  <path d="M450 1011 v9" fill="none" stroke="#faf9f6" stroke-width="3" stroke-linecap="round"/>
</svg>
